<?xml version="1.0" encoding="UTF-8" standalone="no"?>
<!DOCTYPE svg PUBLIC "-//W3C//DTD SVG 1.1//EN" "http://www.w3.org/Graphics/SVG/1.1/DTD/svg11.dtd">
<svg width="100%" height="100%" viewBox="0 0 981 327" version="1.1" xmlns="http://www.w3.org/2000/svg" xmlns:xlink="http://www.w3.org/1999/xlink" xml:space="preserve" xmlns:serif="http://www.serif.com/" style="fill-rule:evenodd;clip-rule:evenodd;stroke-linejoin:round;stroke-miterlimit:2;">
    <g transform="matrix(1,0,0,1,-1057.324733,-276.597452)">
        <g transform="matrix(1,0,0,1,1050.443184,0.127539)">
            <g transform="matrix(1.688706,0,0,1.688706,-215.392817,-877.080316)">
                <g transform="matrix(1,0,0,1,41,0)">
                    <path d="M185.824,876.164C176.935,876.164 169.069,874.119 162.224,870.031C155.38,865.942 150.446,859.719 147.424,851.364L90.624,686.297L138.891,686.297L182.091,830.831C182.446,831.897 182.935,832.697 183.557,833.231C184.18,833.764 184.935,834.031 185.824,834.031C186.713,834.031 187.469,833.808 188.091,833.364C188.713,832.919 189.202,832.075 189.557,830.831L233.557,686.297L280.757,686.297L224.224,851.364C221.38,859.364 216.491,865.497 209.557,869.764C202.624,874.031 194.713,876.164 185.824,876.164Z" style="fill:rgb(242,158,35);fill-rule:nonzero;"/>
                </g>
                <path d="M264.757,872.964L325.291,707.897C328.313,699.719 333.291,693.542 340.224,689.364C347.157,685.186 354.98,683.097 363.691,683.097C372.402,683.097 380.224,685.097 387.157,689.097C394.091,693.097 399.069,699.275 402.091,707.631L462.891,872.964L414.624,872.964L402.891,836.964L323.691,836.964L311.424,872.964L264.757,872.964ZM335.157,799.897L391.424,799.897L367.691,725.497C367.335,724.431 366.846,723.675 366.224,723.231C365.602,722.786 364.846,722.564 363.957,722.564C363.069,722.564 362.313,722.831 361.691,723.364C361.069,723.897 360.669,724.608 360.491,725.497L335.157,799.897Z" style="fill:rgb(242,158,35);fill-rule:nonzero;"/>
                <g transform="matrix(1,0,0,1,-47,0)">
                    <path d="M480.224,872.964L480.224,835.631L559.957,835.631C563.513,835.631 566.713,834.742 569.557,832.964C572.402,831.186 574.669,828.875 576.357,826.031C578.046,823.186 578.891,820.075 578.891,816.697C578.891,813.142 578.046,809.942 576.357,807.097C574.669,804.253 572.402,801.942 569.557,800.164C566.713,798.386 563.513,797.497 559.957,797.497L531.157,797.497C520.313,797.497 510.446,795.364 501.557,791.097C492.669,786.831 485.602,780.564 480.357,772.297C475.113,764.031 472.491,754.119 472.491,742.564C472.491,731.186 474.98,721.319 479.957,712.964C484.935,704.608 491.691,698.075 500.224,693.364C508.757,688.653 518.18,686.297 528.491,686.297L610.891,686.297L610.891,723.631L533.557,723.631C530.357,723.631 527.424,724.431 524.757,726.031C522.091,727.631 520.046,729.764 518.624,732.431C517.202,735.097 516.491,738.031 516.491,741.231C516.491,744.431 517.202,747.319 518.624,749.897C520.046,752.475 522.091,754.564 524.757,756.164C527.424,757.764 530.357,758.564 533.557,758.564L563.691,758.564C575.602,758.564 585.957,760.831 594.757,765.364C603.557,769.897 610.402,776.208 615.291,784.297C620.18,792.386 622.624,801.853 622.624,812.697C622.624,825.497 620.091,836.386 615.024,845.364C609.957,854.342 603.157,861.186 594.624,865.897C586.091,870.608 576.669,872.964 566.357,872.964L480.224,872.964Z" style="fill:rgb(242,158,35);fill-rule:nonzero;"/>
                </g>
                <g transform="matrix(1,0,0,1,-117,0)">
                    <path d="M631.157,872.964L691.691,707.897C694.713,699.719 699.691,693.542 706.624,689.364C713.557,685.186 721.38,683.097 730.091,683.097C738.802,683.097 746.624,685.097 753.557,689.097C760.491,693.097 765.469,699.275 768.491,707.631L829.291,872.964L781.024,872.964L769.291,836.964L690.091,836.964L666.745,852.227L631.157,872.964ZM701.557,799.897L757.824,799.897L734.091,725.497C733.735,724.431 733.246,723.675 732.624,723.231C732.002,722.786 731.246,722.564 730.357,722.564C729.469,722.564 728.713,722.831 728.091,723.364C727.469,723.897 727.069,724.608 726.891,725.497L701.557,799.897Z" style="fill:rgb(242,158,35);fill-rule:nonzero;"/>
                </g>
            </g>
        </g>
    </g>
</svg>
